<svg xmlns="http://www.w3.org/2000/svg" xmlns:xlink="http://www.w3.org/1999/xlink" width="500" zoomAndPan="magnify" viewBox="0 0 375 374.999991" height="500" preserveAspectRatio="xMidYMid meet" version="1.0"><defs><clipPath id="fd5dfa2994"><path d="M 83 16.136719 L 373 16.136719 L 373 272.628906 L 83 272.628906 Z M 83 16.136719 " clip-rule="nonzero"/></clipPath><clipPath id="ee5ad4ce3b"><path d="M 236.375 21.613281 L 371.253906 257.652344 C 373.023438 260.75 373.011719 264.558594 371.21875 267.644531 C 369.429688 270.730469 366.128906 272.628906 362.5625 272.628906 L 93.070312 272.628906 C 89.5 272.628906 86.203125 270.730469 84.410156 267.644531 C 82.621094 264.558594 82.609375 260.75 84.378906 257.652344 L 219.257812 21.613281 C 221.011719 18.542969 224.277344 16.648438 227.816406 16.648438 C 231.351562 16.648438 234.617188 18.542969 236.375 21.613281 Z M 236.375 21.613281 " clip-rule="nonzero"/></clipPath><clipPath id="ee0c28ee4e"><path d="M 2 64.152344 L 292 64.152344 L 292 320.644531 L 2 320.644531 Z M 2 64.152344 " clip-rule="nonzero"/></clipPath><clipPath id="a948d5d483"><path d="M 155.738281 69.628906 L 290.617188 305.667969 C 292.390625 308.765625 292.375 312.574219 290.585938 315.660156 C 288.792969 318.746094 285.496094 320.644531 281.925781 320.644531 L 12.433594 320.644531 C 8.867188 320.644531 5.570312 318.746094 3.777344 315.660156 C 1.988281 312.574219 1.972656 308.765625 3.742188 305.667969 L 138.625 69.628906 C 140.378906 66.558594 143.644531 64.664062 147.179688 64.664062 C 150.71875 64.664062 153.984375 66.558594 155.738281 69.628906 Z M 155.738281 69.628906 " clip-rule="nonzero"/></clipPath><clipPath id="b902e02a27"><path d="M 83 112 L 373 112 L 373 368.355469 L 83 368.355469 Z M 83 112 " clip-rule="nonzero"/></clipPath><clipPath id="b6995e4aaf"><path d="M 236.375 117.339844 L 371.253906 353.378906 C 373.023438 356.476562 373.011719 360.285156 371.21875 363.371094 C 369.429688 366.457031 366.128906 368.355469 362.5625 368.355469 L 93.070312 368.355469 C 89.5 368.355469 86.203125 366.457031 84.410156 363.371094 C 82.621094 360.285156 82.609375 356.476562 84.378906 353.378906 L 219.257812 117.339844 C 221.011719 114.269531 224.277344 112.375 227.816406 112.375 C 231.351562 112.375 234.617188 114.269531 236.375 117.339844 Z M 236.375 117.339844 " clip-rule="nonzero"/></clipPath></defs><g clip-path="url(#fd5dfa2994)"><g clip-path="url(#ee5ad4ce3b)"><path stroke-linecap="butt" transform="matrix(0.75, 0, 0, 0.75, 75.819859, 6.637168)" fill="none" stroke-linejoin="miter" d="M 214.073522 19.968151 L 393.912064 334.686901 C 396.271439 338.81711 396.255814 343.895235 393.865189 348.009818 C 391.479772 352.124401 387.078731 354.655651 382.323522 354.655651 L 23.000605 354.655651 C 18.240188 354.655651 13.844355 352.124401 11.45373 348.009818 C 9.068313 343.895235 9.052688 338.81711 11.412063 334.686901 L 191.250605 19.968151 C 193.589147 15.874401 197.943314 13.348359 202.662064 13.348359 C 207.375605 13.348359 211.729772 15.874401 214.073522 19.968151 Z M 214.073522 19.968151 " stroke="#111f25" stroke-width="50" stroke-opacity="1" stroke-miterlimit="4"/></g></g><g clip-path="url(#ee0c28ee4e)"><g clip-path="url(#a948d5d483)"><path stroke-linecap="butt" transform="matrix(0.75, 0, 0, 0.75, -4.814064, 54.653675)" fill="none" stroke-linejoin="miter" d="M 214.069794 19.966975 L 393.908336 334.685726 C 396.272919 338.815934 396.252086 343.894059 393.866669 348.008642 C 391.476044 352.123226 387.080211 354.654476 382.319794 354.654476 L 22.996877 354.654476 C 18.241669 354.654476 13.845835 352.123226 11.45521 348.008642 C 9.069794 343.894059 9.04896 338.815934 11.408335 334.685726 L 191.252086 19.966975 C 193.590627 15.873225 197.944794 13.347184 202.658336 13.347184 C 207.377086 13.347184 211.731252 15.873225 214.069794 19.966975 Z M 214.069794 19.966975 " stroke="#585e62" stroke-width="50" stroke-opacity="1" stroke-miterlimit="4"/></g></g><g clip-path="url(#b902e02a27)"><g clip-path="url(#b6995e4aaf)"><path stroke-linecap="butt" transform="matrix(0.75, 0, 0, 0.75, 75.819859, 102.363495)" fill="none" stroke-linejoin="miter" d="M 214.073522 19.968465 L 393.912064 334.687216 C 396.271439 338.817424 396.255814 343.895549 393.865189 348.010132 C 391.479772 352.124716 387.078731 354.655966 382.323522 354.655966 L 23.000605 354.655966 C 18.240188 354.655966 13.844355 352.124716 11.45373 348.010132 C 9.068313 343.895549 9.052688 338.817424 11.412063 334.687216 L 191.250605 19.968465 C 193.589147 15.874715 197.943314 13.348674 202.662064 13.348674 C 207.375605 13.348674 211.729772 15.874715 214.073522 19.968465 Z M 214.073522 19.968465 " stroke="#5bf3c7" stroke-width="50" stroke-opacity="1" stroke-miterlimit="4"/></g></g></svg>