<svg xmlns="http://www.w3.org/2000/svg" xmlns:xlink="http://www.w3.org/1999/xlink" width="500" zoomAndPan="magnify" viewBox="0 0 375 374.999991" height="500" preserveAspectRatio="xMidYMid meet" version="1.0"><defs><clipPath id="13cce189c2"><path d="M 83 16.136719 L 373 16.136719 L 373 272.628906 L 83 272.628906 Z M 83 16.136719 " clip-rule="nonzero"/></clipPath><clipPath id="08053dde72"><path d="M 236.375 21.613281 L 371.253906 257.652344 C 373.023438 260.75 373.011719 264.558594 371.21875 267.644531 C 369.429688 270.730469 366.128906 272.628906 362.5625 272.628906 L 93.070312 272.628906 C 89.5 272.628906 86.203125 270.730469 84.410156 267.644531 C 82.621094 264.558594 82.609375 260.75 84.378906 257.652344 L 219.257812 21.613281 C 221.011719 18.542969 224.277344 16.648438 227.816406 16.648438 C 231.351562 16.648438 234.617188 18.542969 236.375 21.613281 Z M 236.375 21.613281 " clip-rule="nonzero"/></clipPath><clipPath id="ecd130e6e8"><path d="M 2 64.152344 L 292 64.152344 L 292 320.644531 L 2 320.644531 Z M 2 64.152344 " clip-rule="nonzero"/></clipPath><clipPath id="ff45f819c2"><path d="M 155.738281 69.628906 L 290.617188 305.667969 C 292.390625 308.765625 292.375 312.574219 290.585938 315.660156 C 288.792969 318.746094 285.496094 320.644531 281.925781 320.644531 L 12.433594 320.644531 C 8.867188 320.644531 5.570312 318.746094 3.777344 315.660156 C 1.988281 312.574219 1.972656 308.765625 3.742188 305.667969 L 138.625 69.628906 C 140.378906 66.558594 143.644531 64.664062 147.179688 64.664062 C 150.71875 64.664062 153.984375 66.558594 155.738281 69.628906 Z M 155.738281 69.628906 " clip-rule="nonzero"/></clipPath><clipPath id="ff3578cc9a"><path d="M 83 112 L 373 112 L 373 368.355469 L 83 368.355469 Z M 83 112 " clip-rule="nonzero"/></clipPath><clipPath id="c6836d7302"><path d="M 236.375 117.339844 L 371.253906 353.378906 C 373.023438 356.476562 373.011719 360.285156 371.21875 363.371094 C 369.429688 366.457031 366.128906 368.355469 362.5625 368.355469 L 93.070312 368.355469 C 89.5 368.355469 86.203125 366.457031 84.410156 363.371094 C 82.621094 360.285156 82.609375 356.476562 84.378906 353.378906 L 219.257812 117.339844 C 221.011719 114.269531 224.277344 112.375 227.816406 112.375 C 231.351562 112.375 234.617188 114.269531 236.375 117.339844 Z M 236.375 117.339844 " clip-rule="nonzero"/></clipPath></defs><g clip-path="url(#13cce189c2)"><g clip-path="url(#08053dde72)"><path stroke-linecap="butt" transform="matrix(0.75, 0, 0, 0.75, 75.819859, 6.637148)" fill="none" stroke-linejoin="miter" d="M 214.073522 19.968178 L 393.912064 334.686928 C 396.271439 338.817137 396.255814 343.895262 393.865189 348.009845 C 391.479772 352.124428 387.078731 354.655678 382.323522 354.655678 L 23.000605 354.655678 C 18.240188 354.655678 13.844355 352.124428 11.45373 348.009845 C 9.068313 343.895262 9.052688 338.817137 11.412063 334.686928 L 191.250605 19.968178 C 193.589147 15.874428 197.943314 13.348386 202.662064 13.348386 C 207.375605 13.348386 211.729772 15.874428 214.073522 19.968178 Z M 214.073522 19.968178 " stroke="#ffffff" stroke-width="50" stroke-opacity="1" stroke-miterlimit="4"/></g></g><g clip-path="url(#ecd130e6e8)"><g clip-path="url(#ff45f819c2)"><path stroke-linecap="butt" transform="matrix(0.75, 0, 0, 0.75, -4.814064, 54.653668)" fill="none" stroke-linejoin="miter" d="M 214.069794 19.966985 L 393.908336 334.685735 C 396.272919 338.815944 396.252086 343.894069 393.866669 348.008652 C 391.476044 352.123235 387.080211 354.654485 382.319794 354.654485 L 22.996877 354.654485 C 18.241669 354.654485 13.845835 352.123235 11.45521 348.008652 C 9.069794 343.894069 9.04896 338.815944 11.408335 334.685735 L 191.252086 19.966985 C 193.590627 15.873235 197.944794 13.347193 202.658336 13.347193 C 207.377086 13.347193 211.731252 15.873235 214.069794 19.966985 Z M 214.069794 19.966985 " stroke="#585e62" stroke-width="50" stroke-opacity="1" stroke-miterlimit="4"/></g></g><g clip-path="url(#ff3578cc9a)"><g clip-path="url(#c6836d7302)"><path stroke-linecap="butt" transform="matrix(0.75, 0, 0, 0.75, 75.819859, 102.363509)" fill="none" stroke-linejoin="miter" d="M 214.073522 19.968446 L 393.912064 334.687197 C 396.271439 338.817405 396.255814 343.89553 393.865189 348.010113 C 391.479772 352.124697 387.078731 354.655947 382.323522 354.655947 L 23.000605 354.655947 C 18.240188 354.655947 13.844355 352.124697 11.45373 348.010113 C 9.068313 343.89553 9.052688 338.817405 11.412063 334.687197 L 191.250605 19.968446 C 193.589147 15.874696 197.943314 13.348654 202.662064 13.348654 C 207.375605 13.348654 211.729772 15.874696 214.073522 19.968446 Z M 214.073522 19.968446 " stroke="#5bf3c7" stroke-width="50" stroke-opacity="1" stroke-miterlimit="4"/></g></g></svg>